<?xml version="1.0" encoding="utf-8"?>
<!-- Generator: Adobe Illustrator 18.1.1, SVG Export Plug-In . SVG Version: 6.00 Build 0)  -->
<svg version="1.1" id="Layer_1" xmlns="http://www.w3.org/2000/svg" xmlns:xlink="http://www.w3.org/1999/xlink" x="0px" y="0px"
	 viewBox="0 0 224 24" enable-background="new 0 0 224 24" xml:space="preserve">
<g>
	<path fill="#1C1A20" d="M22.2,9.2h-4.4V5.4h-2.5v13.1h2.5v4H6.5v-4H9V5.4H6.4v3.9H1.9V1.4h20.3V9.2z"/>
	<path fill="#1C1A20" d="M34.4,1.4c7,0,8.4,2.8,8.4,6.2c0,2.4-1.9,4-4.4,4.4c2.1,0.3,4,2.1,4,4.3c0,1.3,0.2,2.1,0.7,2.1
		c0.5,0,0.7-0.4,0.7-1v-1h2V18c0,2.5-1.1,4.8-4.4,4.8c-4,0-5.9-2.1-5.9-5.6c0-2.7-0.3-3.4-3-3.4v4.7h1.8v4h-9.8v-4h1.7V5.3h-1.7v-4
		H34.4z M32.5,10.4h1.4c1.8,0,2.9-0.8,2.9-2.4c0-1.8-1-2.7-2.7-2.7h-1.5V10.4z"/>
	<path fill="#1C1A20" d="M57.4,1.4v3.9h-1.6v6.5c0,4.9,1.1,5.9,3,5.9c1.8,0,3.1-0.7,3.1-5.9V5.4h-1.6v-4h8.9v3.9h-1.6v7.3
		c0,7.2-3,10.4-8.7,10.4c-6.1-0.2-9.4-3.4-9.4-10.2V5.3h-1.7V1.4H57.4z"/>
	<path fill="#1C1A20" d="M91.1,18.7C89,21,85.9,23,81.9,23c-6.4,0-10.7-4.1-10.7-10.8c0-7,5.2-11.1,9.2-11.1c3,0,4.4,1.7,4.7,2.1
		l0.7-1.7h4.7v8.6h-5.4c-0.1-2-1.1-3.8-3.2-3.8c-2.2,0-3.6,2.7-3.6,6c0,3,1.5,5.7,4.4,5.7c2.5,0,4.5-2.7,4.8-3L91.1,18.7z"/>
	<path fill="#1C1A20" d="M101.4,5.3v4.9l5.6-4.9h-2.2V1.4h10.1v3.9h-1.8L108.8,9l6.1,9.5h1.8v3.9h-11.8v-3.9h2.1l-3.3-5.1l-2.2,1.9
		v3.2h1.6v3.9h-9.5v-3.9h1.6V5.3h-1.6V1.4h9.5v3.9H101.4z"/>
	<path fill="#1C1A20" d="M122.5,15.9c2.2,0,3.5,1.9,3.5,3.4c0,1.8-1.2,3.3-3.5,3.3c-2,0-3.4-1.7-3.4-3.3
		C119,17.8,120.2,15.9,122.5,15.9z"/>
	<path fill="#2AB573" d="M138.1,1.4v4h-1.9v4.6h5.7V5.4h-1.8v-4h9.8v4h-1.8v13.1h1.8v4h-9.8v-4h1.8v-4.6h-5.7v4.6h1.9v4h-9.8v-4h1.7
		V5.4h-1.7v-4H138.1z"/>
	<path fill="#2AB573" d="M162.1,1.4v3.9h-1.6v6.5c0,4.9,1.1,5.9,3,5.9c1.8,0,3.1-0.7,3.1-5.9V5.4h-1.6v-4h8.9v3.9h-1.6v7.3
		c0,7.2-3,10.4-8.7,10.4c-6.1-0.2-9.4-3.4-9.4-10.2V5.3h-1.7V1.4H162.1z"/>
	<path fill="#2AB573" d="M197.4,5.3v17.2h-6.5L183.2,11v7.6h2.3v3.9h-9.3v-3.9h1.8V5.3h-1.8V1.4h8.7l7.4,11.1V5.3h-2.1V1.4h9.1v3.9
		H197.4z"/>
	<path fill="#2AB573" d="M222.1,9.2h-4.4V5.4h-2.5v13.1h2.5v4h-11.2v-4h2.5V5.4h-2.6v3.9h-4.4V1.4h20.3V9.2z"/>
</g>
</svg>
